<svg width="104" height="104" xmlns="http://www.w3.org/2000/svg" xmlns:xlink="http://www.w3.org/1999/xlink" xml:space="preserve" overflow="hidden"><g transform="translate(-352 -164)"><path d="M442.334 212.324C440.332 211.585 438.107 212.589 437.311 214.632 431.976 214.627 430.265 214.627 424.987 214.627L424.987 206.645 426.194 206.645C426.194 206.645 427.27 206.645 427.27 206.645L428.04 206.661C428.445 207.711 429.288 208.533 430.343 208.923 431.326 209.282 432.392 209.24 433.338 208.798 434.29 208.356 435.008 207.571 435.372 206.588 436.115 204.56 435.065 202.303 433.037 201.56 431.05 200.837 428.84 201.825 428.034 203.848L424.966 203.848 424.966 201.346C424.987 198.06 422.434 195.294 419.153 195.06 418.435 195.008 417.712 195.018 417.01 195.023 416.724 195.023 416.438 195.023 416.152 195.023L416.152 193.9C416.152 193.9 416.152 193.021 416.152 193.021L416.152 191.955C417.218 191.544 418.05 190.697 418.435 189.62 418.789 188.632 418.737 187.572 418.29 186.625 417.842 185.679 417.052 184.961 416.069 184.608 415.081 184.254 414.02 184.306 413.074 184.753 412.128 185.2 411.41 185.991 411.056 186.974 410.344 188.965 411.342 191.16 413.36 191.955L413.36 194.997 405.373 194.997 405.362 182.684C406.439 182.283 407.281 181.436 407.676 180.354 408.035 179.371 407.988 178.305 407.546 177.359 407.104 176.412 406.319 175.69 405.336 175.331 404.354 174.972 403.288 175.019 402.341 175.461 401.395 175.903 400.672 176.688 400.313 177.671 399.585 179.673 400.594 181.898 402.627 182.689 402.622 187.998 402.622 189.745 402.622 194.997L394.64 194.997 394.64 193.827C394.64 193.827 394.64 192.803 394.64 192.803L394.671 191.945C395.711 191.534 396.528 190.702 396.912 189.657 397.276 188.674 397.235 187.613 396.798 186.662 396.361 185.71 395.581 184.987 394.598 184.623 393.621 184.259 392.555 184.301 391.603 184.738 390.652 185.174 389.929 185.954 389.565 186.937 389.201 187.92 389.242 188.981 389.679 189.932 390.1 190.848 390.844 191.555 391.848 191.95L391.848 195.018C391.848 195.018 391.099 195.018 391.099 195.018 390.511 195.018 389.918 195.018 389.336 195.018L389.31 195.018C386.013 195.018 383.273 197.587 383.06 200.873 383.013 201.591 383.018 202.319 383.023 203.021 383.023 203.291 383.028 203.556 383.023 203.827L379.966 203.827C379.565 202.771 378.728 201.944 377.657 201.549 376.674 201.19 375.613 201.232 374.667 201.669 373.72 202.106 372.998 202.886 372.634 203.868 372.27 204.851 372.316 205.912 372.753 206.858 373.19 207.805 373.97 208.528 374.953 208.886 375.936 209.25 376.996 209.204 377.948 208.767 378.858 208.346 379.56 207.607 379.95 206.614L382.997 206.614 382.997 214.596 370.684 214.606C370.283 213.535 369.446 212.693 368.37 212.298 367.387 211.934 366.326 211.975 365.374 212.412 364.423 212.849 363.7 213.629 363.336 214.612 362.587 216.64 363.627 218.896 365.65 219.645 366.633 220.009 367.694 219.968 368.645 219.531 369.571 219.104 370.283 218.356 370.673 217.336 376.014 217.342 377.719 217.342 383.002 217.342L383.002 225.324 381.957 225.324C381.957 225.324 381.078 225.324 381.078 225.324L379.945 225.308C379.534 224.247 378.681 223.42 377.61 223.036 375.577 222.313 373.33 223.374 372.602 225.407 371.88 227.44 372.94 229.686 374.974 230.414 375.956 230.768 377.022 230.716 377.969 230.264 378.874 229.837 379.565 229.094 379.95 228.116L383.018 228.116C383.018 228.116 383.018 228.672 383.018 228.672L383.018 230.638C383.013 233.924 385.576 236.675 388.858 236.899 389.57 236.946 390.293 236.94 390.99 236.935 391.27 236.935 391.551 236.935 391.827 236.935L391.837 239.993C390.782 240.393 389.955 241.225 389.56 242.281 388.806 244.298 389.835 246.555 391.858 247.309 393.876 248.058 396.138 247.034 396.886 245.011 397.25 244.033 397.214 242.967 396.782 242.021 396.361 241.1 395.623 240.393 394.624 239.998L394.624 237.986C394.624 237.986 394.63 236.956 394.63 236.956L402.612 236.956C402.612 242.203 402.612 243.934 402.622 249.27 401.546 249.67 400.703 250.512 400.308 251.594 399.564 253.622 400.61 255.874 402.638 256.617 403.08 256.778 403.532 256.856 403.984 256.856 405.581 256.856 407.084 255.874 407.666 254.288 408.025 253.305 407.983 252.244 407.541 251.292 407.115 250.372 406.366 249.665 405.357 249.28 405.362 243.95 405.362 242.229 405.362 236.961L413.339 236.961 413.339 238.152C413.339 238.152 413.339 239.135 413.339 239.135L413.313 240.014C412.263 240.424 411.441 241.267 411.056 242.328 410.698 243.31 410.75 244.376 411.192 245.323 411.634 246.269 412.424 246.987 413.407 247.346 415.44 248.079 417.692 247.023 418.425 244.995 419.142 243.004 418.144 240.799 416.132 240.003L416.132 236.94C416.132 236.94 416.886 236.94 416.886 236.94 417.484 236.94 418.082 236.94 418.669 236.94 421.94 236.94 424.686 234.382 424.914 231.116 424.966 230.388 424.956 229.655 424.951 228.943 424.951 228.672 424.946 228.402 424.951 228.132L428.008 228.132C428.409 229.187 429.246 230.014 430.312 230.409 432.335 231.153 434.592 230.113 435.335 228.09 435.699 227.107 435.652 226.046 435.216 225.1 434.779 224.148 433.999 223.431 433.016 223.067 431.035 222.334 428.825 223.322 428.019 225.339L424.972 225.339 424.972 217.357 426.828 217.357C430.718 217.357 432.605 217.357 437.29 217.347 437.29 217.347 437.29 217.347 437.29 217.352 437.691 218.418 438.533 219.26 439.604 219.656 440.587 220.02 441.653 219.978 442.6 219.541 443.551 219.104 444.274 218.319 444.638 217.342 445.387 215.314 444.347 213.057 442.319 212.308ZM442.111 216.026C442.106 216.645 441.596 217.149 440.977 217.149L440.962 217.149C440.66 217.149 440.374 217.024 440.161 216.806 439.948 216.588 439.833 216.302 439.838 216L439.838 216C439.838 215.704 439.963 215.418 440.176 215.204 440.384 214.996 440.676 214.877 440.972 214.877L440.988 214.877C441.289 214.877 441.575 215.002 441.788 215.22 442.002 215.438 442.116 215.724 442.111 216.026ZM430.556 205.246C430.556 204.628 431.061 204.123 431.68 204.123L431.68 204.123C431.976 204.123 432.257 204.238 432.47 204.451 432.683 204.664 432.798 204.945 432.798 205.246 432.798 205.548 432.678 205.829 432.47 206.042 432.262 206.25 431.976 206.37 431.68 206.37 431.061 206.37 430.556 205.865 430.556 205.246ZM389.211 234.21C387.256 234.143 385.722 232.5 385.79 230.529L385.79 216C385.79 211.169 385.79 206.333 385.79 201.482 385.727 199.974 386.627 198.601 388.031 198.06 388.488 197.888 388.967 197.805 389.45 197.8 399.154 197.79 408.857 197.784 418.576 197.79L418.773 197.79C420.718 197.842 422.262 199.469 422.21 201.43 422.216 211.143 422.216 220.857 422.21 230.581 422.21 230.643 422.21 230.711 422.21 230.773 422.184 231.714 421.789 232.593 421.103 233.243 420.416 233.893 419.527 234.216 418.56 234.205 408.857 234.21 399.154 234.21 389.43 234.205 389.357 234.205 389.284 234.205 389.206 234.205ZM394.047 189.158C393.829 189.366 393.522 189.475 393.236 189.475 392.934 189.47 392.648 189.345 392.44 189.126 392.232 188.908 392.118 188.617 392.128 188.315L392.128 188.315C392.134 188.014 392.253 187.738 392.472 187.53 392.685 187.322 392.966 187.208 393.262 187.208L393.288 187.208C393.59 187.213 393.876 187.338 394.084 187.556 394.292 187.774 394.406 188.06 394.396 188.367 394.39 188.669 394.266 188.955 394.047 189.163ZM404.01 180.156 404.01 180.156C403.667 180.141 403.428 180.042 403.22 179.834 403.002 179.621 402.882 179.33 402.877 179.028 402.877 178.404 403.381 177.894 404.005 177.894L404.005 177.894C404.629 177.894 405.134 178.399 405.139 179.023 405.139 179.647 404.634 180.156 404.01 180.156ZM415.544 189.137C415.331 189.35 415.05 189.464 414.748 189.464L414.743 189.464C414.119 189.464 413.615 188.95 413.62 188.326 413.62 187.707 414.13 187.202 414.754 187.202L414.759 187.202C415.055 187.202 415.341 187.322 415.549 187.53 415.762 187.743 415.882 188.04 415.882 188.341 415.882 188.643 415.762 188.924 415.544 189.137ZM414.754 242.562 414.754 242.562C415.372 242.562 415.877 243.061 415.877 243.68 415.877 243.981 415.762 244.262 415.549 244.475 415.341 244.688 415.055 244.803 414.759 244.808L414.759 244.808C414.759 244.808 414.759 244.808 414.754 244.808 414.462 244.808 414.171 244.688 413.963 244.48 413.75 244.267 413.63 243.986 413.63 243.69 413.63 243.071 414.13 242.567 414.748 242.562ZM404.005 251.838 404.016 251.838C404.317 251.838 404.598 251.963 404.806 252.176 405.014 252.39 405.134 252.676 405.128 252.977 405.128 253.279 405.004 253.56 404.79 253.768 404.572 253.981 404.286 254.085 403.99 254.09L403.99 254.09C403.693 254.09 403.412 253.97 403.204 253.757 402.996 253.544 402.877 253.253 402.877 252.956 402.882 252.338 403.386 251.838 404.005 251.838ZM392.456 242.874C392.669 242.66 392.955 242.546 393.257 242.546L393.257 242.546C393.881 242.546 394.385 243.056 394.385 243.674 394.385 244.293 393.876 244.803 393.257 244.803L393.257 244.803C392.96 244.803 392.68 244.688 392.466 244.475 392.253 244.267 392.128 243.971 392.128 243.669 392.128 243.368 392.248 243.082 392.461 242.868ZM405.326 182.71 405.326 182.71C405.326 182.71 405.326 182.71 405.326 182.71L405.326 182.71ZM377.454 205.272C377.449 205.891 376.939 206.39 376.326 206.39L376.315 206.39C375.691 206.385 375.192 205.87 375.197 205.246L375.197 205.246C375.197 204.945 375.317 204.664 375.535 204.456 375.743 204.248 376.029 204.128 376.326 204.128L376.341 204.128C376.643 204.128 376.924 204.253 377.137 204.466 377.345 204.68 377.459 204.966 377.459 205.267ZM368.151 216 368.151 216C368.151 216.296 368.032 216.582 367.824 216.796 367.61 217.009 367.314 217.134 367.018 217.134 366.394 217.134 365.884 216.624 365.884 216 365.884 215.376 366.394 214.866 367.018 214.866 367.642 214.866 368.151 215.376 368.151 216ZM377.438 226.769C377.438 227.383 376.934 227.882 376.315 227.882L376.31 227.882C375.691 227.882 375.192 227.372 375.197 226.754 375.197 226.452 375.317 226.171 375.53 225.963 375.743 225.755 376.019 225.641 376.32 225.641L376.326 225.641C376.944 225.641 377.444 226.15 377.438 226.769ZM402.674 249.296 402.674 249.296C402.674 249.296 402.674 249.296 402.674 249.296 402.674 249.296 402.674 249.296 402.674 249.296ZM430.536 226.743C430.536 226.124 431.045 225.62 431.669 225.62L431.674 225.62C431.976 225.62 432.262 225.745 432.47 225.958 432.678 226.171 432.798 226.457 432.792 226.759L432.792 226.759C432.792 227.06 432.673 227.341 432.46 227.549 432.246 227.762 431.971 227.887 431.654 227.882 431.352 227.882 431.066 227.762 430.858 227.544 430.65 227.326 430.53 227.045 430.53 226.743ZM370.606 214.643C370.606 214.643 370.621 214.643 370.626 214.643L370.585 214.643C370.585 214.643 370.6 214.643 370.606 214.643Z" fill="#FFFFFF"/><path d="M406.933 216.884C405.742 213.41 404.556 209.932 403.397 206.52 403.319 206.084 402.898 205.787 402.528 205.855 401.717 205.87 400.901 205.87 400.162 205.86 399.736 205.792 399.32 206.078 399.268 206.442L392.586 226.145 393.881 226.145C394.453 226.145 395.009 226.145 395.493 226.145 395.534 226.15 395.581 226.156 395.628 226.156 395.789 226.156 395.945 226.109 396.075 226.015 396.247 225.896 396.366 225.708 396.377 225.578 396.777 224.341 397.188 223.108 397.594 221.871L398.192 220.066C400.225 220.066 402.263 220.066 404.348 220.066 404.39 220.202 404.442 220.337 404.484 220.472L404.541 220.628C405.097 222.282 405.659 223.935 406.226 225.584 406.288 225.776 406.512 226.14 406.87 226.14 407.541 226.15 408.212 226.156 408.898 226.15L409.424 226.15 409.424 225.677 409.424 225.677C409.424 225.677 409.424 225.677 409.424 225.677L409.424 225.677C409.424 225.677 409.881 225.542 409.881 225.542L406.938 216.894ZM403.496 217.144 399.029 217.144C399.278 216.38 399.544 215.62 399.804 214.856 400.303 213.41 400.812 211.923 401.249 210.42 401.67 211.845 402.154 213.244 402.627 214.606 402.924 215.449 403.215 216.291 403.49 217.144Z" fill="#FFFFFF"/><path d="M411.8 205.87 415.206 205.87 415.206 226.14 411.8 226.14Z" fill="#FFFFFF"/></g></svg>