<svg xmlns="http://www.w3.org/2000/svg" width="99.097" height="44.081" viewBox="0 0 99.097 44.081"><defs><style>.a{fill:#fff;}.b{fill:#ed1c24;}.c{fill:#004b8c;}</style></defs><rect class="a" width="99.097" height="44.081" transform="translate(0)"/><g transform="translate(0.924 0.792)"><rect class="b" width="97.09" height="20.971"/><rect class="c" width="97.09" height="11.04" transform="translate(0 21.922)"/><path class="a" d="M793.859,1171.767l1.03-3.883h2.377v6.418h-1.8v-2.536l.132-1.373-1.03,3.909h-1.426l-1.03-3.988.132,1.453v2.536h-1.8v-6.418h2.377Z" transform="translate(-784.905 -1143.718)"/><path class="a" d="M812.778,1167.884v4.041a1.019,1.019,0,0,0,.264.74.967.967,0,0,0,.608.264h.132a1.132,1.132,0,0,0,.555-.291.955.955,0,0,0,.264-.686v-4.068h2.007v4.041a2.448,2.448,0,0,1-.766,1.928,3.1,3.1,0,0,1-2.139.66,3.009,3.009,0,0,1-2.087-.687,2.6,2.6,0,0,1-.739-2.034v-3.909h1.9" transform="translate(-795.504 -1143.717)"/><path class="a" d="M833.886,1167.884v1.717h-1.717v4.7h-2.007v-4.7h-1.717v-1.717Z" transform="translate(-804.622 -1143.718)"/><path class="a" d="M847.7,1167.884v4.041a1.036,1.036,0,0,0,.291.74.91.91,0,0,0,.608.264h.132a1.134,1.134,0,0,0,.555-.291.955.955,0,0,0,.264-.686v-4.068h1.981v4.041a2.448,2.448,0,0,1-.766,1.928,3.192,3.192,0,0,1-2.139.66,3.009,3.009,0,0,1-2.087-.687,2.6,2.6,0,0,1-.739-2.034v-3.909h1.9" transform="translate(-813.625 -1143.717)"/><path class="a" d="M867.153,1167.884l2.139,6.418h-2.007l-.185-.819h-1.928l-.211.819H862.98l2.113-6.418Zm-.476,4.253-.581-2.087-.581,2.087Z" transform="translate(-822.543 -1143.717)"/><path class="a" d="M883.685,1167.884v4.886h2.694v1.532h-4.622v-6.418Z" transform="translate(-832.288 -1143.718)"/><path class="a" d="M911.415,1167.994v1.373H908.8v1.294h2.113v1.532H908.8v2.166h-2.007v-6.365Z" transform="translate(-845.28 -1143.775)"/><path class="a" d="M924.424,1167.884v4.041a1.036,1.036,0,0,0,.291.74.91.91,0,0,0,.607.264h.106a.95.95,0,0,0,.555-.291.859.859,0,0,0,.264-.686v-4.068h1.981v4.041a2.448,2.448,0,0,1-.766,1.928,3.146,3.146,0,0,1-2.14.66,3.009,3.009,0,0,1-2.086-.687,2.6,2.6,0,0,1-.739-2.034v-3.909h1.928" transform="translate(-853.429 -1143.717)"/><path class="a" d="M942.74,1167.884l2.06,3.328-.079-1.03v-2.3h1.928v6.418H944.8l-2.06-3.434.053,1.057v2.377h-1.849v-6.418Z" transform="translate(-863.002 -1143.718)"/><path class="a" d="M961.657,1167.884a5.648,5.648,0,0,1,.608.053,3.333,3.333,0,0,1,.686.185,3.566,3.566,0,0,1,1.294.925,2.929,2.929,0,0,1,.634,1.9v.159a3.112,3.112,0,0,1-.872,2.483,3.389,3.389,0,0,1-2.219.713h-2.562v-6.418h2.43m-.5,4.886h.211a1.7,1.7,0,0,0,1.109-.37,1.773,1.773,0,0,0,.422-1.4,1.3,1.3,0,0,0-1.426-1.611h-.291v3.381Z" transform="translate(-872.491 -1143.717)"/><g transform="translate(8.056 3.592)"><path d="M947.407,1128.017a14.017,14.017,0,0,0-6.206-1.585c-3.407,0-7.871,2.324-8.109,6.946,0,0-.158,7.158,8.082,7.158,4.912-.212,6.788-1.849,6.788-1.849l-2.086-3.222a10.214,10.214,0,0,1-4.728,1.347,3.847,3.847,0,0,1-3.83-3.143c-.079-1.4,1.162-3.249,3.83-3.513a8.762,8.762,0,0,1,4.939,1.215l1.32-3.354" transform="translate(-866.983 -1125.798)"/><path d="M836.955,1126.432h3.909v4.939h6.075v-4.939h3.909V1140.3h-3.909v-5.335h-6.075v5.335h-3.909v-13.866" transform="translate(-817.094 -1125.798)"/><path d="M875.618,1130v6.735h3.223s2.984.026,2.984-3.513a2.986,2.986,0,0,0-3.011-3.249h-3.2m-3.909-3.539h7.369s6.867.291,6.867,6.788a6.574,6.574,0,0,1-6.867,7.1h-7.369Z" transform="translate(-835.129 -1125.798)"/><path d="M905.392,1126.432h12.73v3.724H909.3v1.77h6.26v3.407H909.3v4.939h-3.935l.026-13.84" transform="translate(-852.595 -1125.798)"/><path class="a" d="M946.2,1126.754a14.018,14.018,0,0,0-6.207-1.585c-3.381,0-7.871,2.35-8.109,6.946,0,0-.132,7.158,8.082,7.158,4.939-.211,6.788-1.849,6.788-1.849l-2.06-3.222a10.216,10.216,0,0,1-4.728,1.347,3.815,3.815,0,0,1-3.8-3.143c-.079-1.4,1.136-3.249,3.8-3.513a8.892,8.892,0,0,1,4.965,1.215l1.268-3.354" transform="translate(-866.356 -1125.142)"/><path class="a" d="M835.747,1125.169h3.909v4.939h6.075v-4.939h3.909v13.893h-3.909V1133.7h-6.075v5.362h-3.909v-13.893" transform="translate(-816.467 -1125.142)"/><path class="a" d="M874.411,1128.761v6.735h3.223s2.984.026,2.984-3.513a2.956,2.956,0,0,0-3.011-3.222h-3.2m-3.909-3.592h7.369s6.867.317,6.867,6.788a6.575,6.575,0,0,1-6.867,7.105H870.5Z" transform="translate(-834.503 -1125.142)"/><path class="a" d="M904.213,1125.169h12.73v3.724h-8.821v1.8h6.26v3.381h-6.26v4.939h-3.909v-13.84" transform="translate(-851.997 -1125.142)"/><path d="M795.722,1135.179l.951-.951h-.924v-9.059h4.041l1,1v-1h8.742v4.147l-.924.924h.924v8.953h-3.909l-.9-.924v.924h-8.98l-.026-4.014" transform="translate(-795.696 -1125.142)"/><path d="M795.694,1135.151l.026.026.977-1h-.951v-9.006h4.015l1.03,1.057v-1.057h8.689v4.12l-.951.951h.951v8.9H805.6l-.924-.951v.951h-8.927l-.026-3.988h-.026l.026.026-.026-.026h-.026l.053,4.041h9.006v-.9l.872.9h3.935v-9.006h-.872l.872-.9v-4.173h-8.8v1l-.951-1H795.72v9.112h.872l-.924.925h.026" transform="translate(-795.667 -1125.114)"/><rect class="a" width="6.154" height="2.8" transform="translate(5.837 2.139)"/><path class="a" d="M807.773,1129.533h-.026v2.8h6.207v-2.826h-6.207v.026H813.9v2.773h-6.1v-2.773h-.026" transform="translate(-801.936 -1127.393)"/><rect class="a" width="6.075" height="2.694" transform="translate(2.113 9.323)"/><path class="a" d="M800.06,1144.467h0v2.72h6.1v-2.747h-6.1v.026h0v.026h6.048v2.668h-6.022v-2.694h-.026v0" transform="translate(-797.947 -1135.143)"/><rect class="a" width="2.8" height="6.18" transform="translate(9.191 5.916)"/><path class="a" d="M814.745,1137.384h-.026v6.207h2.852v-6.233h-2.852v.026h.026v.026h2.773v6.128h-2.747v-6.154h-.026v0" transform="translate(-805.554 -1131.468)"/><rect class="b" width="2.826" height="6.392" transform="translate(2.113 2.087)"/></g></g><g transform="translate(8.769 36.078)"><path d="M799,1191.273a.943.943,0,0,1,.687.238.9.9,0,0,1,.238.687,1.953,1.953,0,0,1-.211.951.986.986,0,0,1-.634.475,1.323,1.323,0,0,1,.449.4,1.162,1.162,0,0,1,.158.608,2.436,2.436,0,0,1-.185,1,1.926,1.926,0,0,1-.5.739,1.385,1.385,0,0,1-.5.291,3.459,3.459,0,0,1-.872.079h-2.086a.527.527,0,0,1-.238-.053.24.24,0,0,1-.079-.185v-.052a.1.1,0,0,1,.026-.079l1.109-4.622v-.079a.16.16,0,0,0-.079-.158.393.393,0,0,0-.211-.079l.026-.159Zm-1.135,2.8h-.9l-.449,1.875h1a1,1,0,0,0,.792-.317,1.286,1.286,0,0,0,.291-.872.72.72,0,0,0-.185-.528A.976.976,0,0,0,797.87,1194.073Zm-.4-2.033-.317,1.267h.792a.773.773,0,0,0,.634-.211.847.847,0,0,0,.211-.608.383.383,0,0,0-.449-.449Z" transform="translate(-795.228 -1191.141)"/><path d="M808.508,1191.273h1.215a.306.306,0,0,1,.185.053.2.2,0,0,1,.053.132v.105l-.422,1.743h1.637l.4-1.558v-.079a.227.227,0,0,0-.079-.158.259.259,0,0,0-.211-.079l.026-.159h1.162a.34.34,0,0,1,.211.053.145.145,0,0,1,.079.132v.079l-1.136,4.7v.106a.238.238,0,0,0,.079.185c.052.053.132.053.238.053l-.026.159h-1.109a.663.663,0,0,1-.264-.053.206.206,0,0,1-.079-.185v-.132l.555-2.3h-1.664l-.528,2.192v.079a.239.239,0,0,0,.079.185.322.322,0,0,0,.238.079l-.026.159h-1.162a.527.527,0,0,1-.238-.053.24.24,0,0,1-.079-.185v-.132l1.109-4.622v-.079a.221.221,0,0,0-.052-.158.888.888,0,0,0-.212-.079Z" transform="translate(-801.667 -1191.141)"/><path d="M821.842,1191.273h1.373a.563.563,0,0,1,.317.079.447.447,0,0,1,.105.317l.265,4.464a.36.36,0,0,0,.105.291.271.271,0,0,0,.211.132l-.026.159h-.951a.456.456,0,0,1-.343-.132.7.7,0,0,1-.132-.4l-.053-1.03h-1.638l-.555,1.057c0,.026-.026.052-.026.079a.1.1,0,0,1-.026.079.2.2,0,0,0,.053.132.223.223,0,0,0,.158.053l-.026.159H819.6a.222.222,0,0,1-.158-.053.2.2,0,0,1-.053-.132.335.335,0,0,1,.026-.158c.026-.053.053-.132.105-.238l2.43-4.331a.577.577,0,0,1,.079-.132.159.159,0,0,0,.026-.106.2.2,0,0,0-.053-.132.22.22,0,0,0-.158-.053Zm.713,1.109-1.162,2.06h1.268Z" transform="translate(-807.765 -1191.141)"/><path d="M833.131,1191.273h2.589a1.169,1.169,0,0,1,.845.291,1.1,1.1,0,0,1,.291.819,2.01,2.01,0,0,1-.423,1.347,1.28,1.28,0,0,1-1.083.528h-.026l.476,1.373a.335.335,0,0,0,.132.185.284.284,0,0,0,.211.053h.079a.2.2,0,0,0,.106-.027,4.791,4.791,0,0,1-.132.608c-.026.105-.053.158-.106.185-.026.026-.079.026-.158.053-.079,0-.211.026-.4.026a.953.953,0,0,1-.475-.079.38.38,0,0,1-.158-.264l-.608-2.034h-.4l-.449,1.876v.079a.24.24,0,0,0,.079.185c.053.052.132.052.211.079l-.026.159h-1.189a.5.5,0,0,1-.211-.053.24.24,0,0,1-.079-.185.2.2,0,0,1,.026-.106v-.026l1.109-4.648v-.079a.16.16,0,0,0-.079-.158.24.24,0,0,0-.185-.079Zm1.32.766-.369,1.532h.686a.821.821,0,0,0,.66-.291,1.291,1.291,0,0,0,.238-.845.438.438,0,0,0-.132-.317.716.716,0,0,0-.4-.105h-.687Z" transform="translate(-814.432 -1191.141)"/><path d="M846.165,1196.677a1.979,1.979,0,0,1-1.32-.343,1.181,1.181,0,0,1-.423-1.03c0-.158.026-.343.053-.581s.106-.528.185-.871.159-.634.238-.9.159-.449.212-.608a2.408,2.408,0,0,1,.845-1.03A2.544,2.544,0,0,1,847.3,1191a2.334,2.334,0,0,1,1.4.344,1.113,1.113,0,0,1,.449,1,3.2,3.2,0,0,1-.026.475,3.661,3.661,0,0,1-.132.661,9.42,9.42,0,0,1-.291,1.162,5.429,5.429,0,0,1-.264.739,2.257,2.257,0,0,1-.845.977A2.539,2.539,0,0,1,846.165,1196.677Zm-.528-1.585a.72.72,0,0,0,.185.528.744.744,0,0,0,.555.185.856.856,0,0,0,.634-.238,2.235,2.235,0,0,0,.449-.845q.2-.634.317-1.188a4.451,4.451,0,0,0,.106-.845.772.772,0,0,0-.159-.555.644.644,0,0,0-.528-.185.837.837,0,0,0-.608.238,1.712,1.712,0,0,0-.422.766,9.15,9.15,0,0,0-.344,1.268A2.849,2.849,0,0,0,845.637,1195.093Z" transform="translate(-820.757 -1190.999)"/><path d="M858.357,1191.273h1.611l-.132.555a.356.356,0,0,1-.132.238.324.324,0,0,1-.238.079h-.9a.636.636,0,0,0-.476.185.776.776,0,0,0-.185.5.3.3,0,0,0,.079.211.91.91,0,0,0,.291.185l.819.4a1.141,1.141,0,0,1,.5.422,1.126,1.126,0,0,1,.158.634,2.145,2.145,0,0,1-.475,1.506,1.771,1.771,0,0,1-1.373.528h-1.162a1.337,1.337,0,0,1-.581-.079.254.254,0,0,1-.158-.238v-.132l.158-.713h.132a.334.334,0,0,0,.106.238.423.423,0,0,0,.29.079h.925a.957.957,0,0,0,.713-.264.937.937,0,0,0,.264-.687.394.394,0,0,0-.079-.264.615.615,0,0,0-.291-.185l-.951-.423a.73.73,0,0,1-.4-.343,1.073,1.073,0,0,1-.132-.555,2.034,2.034,0,0,1,.423-1.373A1.538,1.538,0,0,1,858.357,1191.273Z" transform="translate(-826.769 -1191.141)"/><path d="M868.51,1191.273h1.373a.562.562,0,0,1,.317.079.447.447,0,0,1,.106.317l.264,4.464a.361.361,0,0,0,.106.291.269.269,0,0,0,.211.132l-.026.159h-.951a.455.455,0,0,1-.343-.132.7.7,0,0,1-.132-.4l-.053-1.03h-1.637l-.555,1.057c0,.026-.026.052-.026.079a.1.1,0,0,1-.026.079.2.2,0,0,0,.053.132.223.223,0,0,0,.159.053l-.026.159h-1.056a.224.224,0,0,1-.159-.053.2.2,0,0,1-.053-.132.335.335,0,0,1,.026-.158c.026-.053.053-.132.106-.238l2.43-4.331a.574.574,0,0,1,.079-.132.159.159,0,0,0,.026-.106.2.2,0,0,0-.053-.132.223.223,0,0,0-.159-.053Zm.713,1.109-1.162,2.06h1.268Z" transform="translate(-831.983 -1191.141)"/><path d="M887.864,1191.273h1.373a.561.561,0,0,1,.317.079.447.447,0,0,1,.106.317l.264,4.464a.361.361,0,0,0,.106.291.27.27,0,0,0,.211.132l-.026.159h-.951a.455.455,0,0,1-.343-.132.7.7,0,0,1-.132-.4l-.079-.978h-1.638l-.555,1.057c0,.026-.026.053-.026.079a.1.1,0,0,1-.026.079.2.2,0,0,0,.052.132.223.223,0,0,0,.159.053l-.026.158h-1.056a.224.224,0,0,1-.159-.052.2.2,0,0,1-.052-.132.339.339,0,0,1,.026-.158c.026-.053.053-.132.106-.238l2.43-4.332a.579.579,0,0,1,.079-.132.159.159,0,0,0,.026-.106.2.2,0,0,0-.053-.132.223.223,0,0,0-.158-.053Zm.713,1.109-1.162,2.06h1.268Z" transform="translate(-842.013 -1191.141)"/><path d="M899.126,1191.273h2.588a1.057,1.057,0,0,1,.819.264,1.123,1.123,0,0,1,.264.845,2.988,2.988,0,0,1-.159.951,2.155,2.155,0,0,1-.4.739,1.156,1.156,0,0,1-.581.37,3.88,3.88,0,0,1-1.109.106h-.713l-.4,1.664v.105a.239.239,0,0,0,.079.185.285.285,0,0,0,.212.053l-.026.159h-1.189a.3.3,0,0,1-.211-.079.24.24,0,0,1-.079-.185v-.106l1.109-4.622v-.079a.159.159,0,0,0-.079-.158.391.391,0,0,0-.185-.079Zm1.347.793-.422,1.716h.369a3.265,3.265,0,0,0,.608-.052.635.635,0,0,0,.317-.185,1.04,1.04,0,0,0,.238-.449,1.969,1.969,0,0,0,.079-.528.548.548,0,0,0-.106-.4.516.516,0,0,0-.37-.105Z" transform="translate(-848.68 -1191.141)"/><path d="M910.766,1191.273h1.109a.672.672,0,0,1,.422.132,1.069,1.069,0,0,1,.264.555l.9,3.011.739-3.222v-.079a.159.159,0,0,0-.079-.158,1.26,1.26,0,0,0-.185-.079l.026-.159h.925a.527.527,0,0,1,.238.053.159.159,0,0,1,.079.159v.132l-1.215,5.1H913.3a.536.536,0,0,1-.4-.159,1.065,1.065,0,0,1-.264-.449l-.978-3.117-.739,3.275v.106a.159.159,0,0,0,.079.158.494.494,0,0,0,.211.053l-.026.159h-1.056a.306.306,0,0,1-.185-.053.3.3,0,0,1-.079-.185v-.105l1.109-4.649v-.079a.16.16,0,0,0-.079-.158.26.26,0,0,0-.211-.079Z" transform="translate(-854.72 -1191.141)"/><path d="M925.117,1196.677a1.979,1.979,0,0,1-1.32-.343,1.181,1.181,0,0,1-.423-1.03c0-.158.026-.343.053-.581s.106-.528.185-.871.159-.634.238-.9.159-.449.212-.608a2.408,2.408,0,0,1,.845-1.03,2.544,2.544,0,0,1,1.347-.317,2.334,2.334,0,0,1,1.4.344,1.112,1.112,0,0,1,.449,1,3.2,3.2,0,0,1-.026.475,3.666,3.666,0,0,1-.132.661,9.42,9.42,0,0,1-.291,1.162,5.429,5.429,0,0,1-.264.739,2.254,2.254,0,0,1-.845.977A2.539,2.539,0,0,1,925.117,1196.677Zm-.528-1.585a.72.72,0,0,0,.185.528.744.744,0,0,0,.555.185.856.856,0,0,0,.634-.238,2.236,2.236,0,0,0,.449-.845q.2-.634.317-1.188a4.227,4.227,0,0,0,.106-.845.772.772,0,0,0-.159-.555.644.644,0,0,0-.528-.185.837.837,0,0,0-.608.238,1.713,1.713,0,0,0-.422.766,9.149,9.149,0,0,0-.343,1.268A2.85,2.85,0,0,0,924.589,1195.093Z" transform="translate(-861.729 -1190.999)"/><path d="M943.82,1191.245h1.215a.384.384,0,0,1,.185.053c.053.026.053.079.053.132v.132l-.449,1.9,1.611-1.743c.026-.026.053-.079.079-.106a.1.1,0,0,0,.026-.079.137.137,0,0,0-.053-.105c-.026-.026-.079-.026-.132-.053l.026-.158h.951a1.285,1.285,0,0,1,.4.052.145.145,0,0,1,.105.159.158.158,0,0,1-.026.105c-.027.026-.052.079-.079.106l-1.637,1.585.9,2.3a2.372,2.372,0,0,0,.132.264.239.239,0,0,0,.185.079h.079a.285.285,0,0,0,.132-.026,1.915,1.915,0,0,1-.132.634.286.286,0,0,1-.291.185h-.634a.323.323,0,0,1-.238-.106.987.987,0,0,1-.185-.344l-.845-2.3-.687.687-.37,1.559v.105a.161.161,0,0,0,.079.159,1.246,1.246,0,0,0,.238.079l-.026.159h-1.162a.34.34,0,0,1-.211-.053.24.24,0,0,1-.079-.185.464.464,0,0,1,.027-.159v-.026l1.109-4.569v-.079a.228.228,0,0,0-.079-.158.259.259,0,0,0-.211-.079Z" transform="translate(-871.901 -1191.113)"/><path d="M956.906,1191.273h1.373a.563.563,0,0,1,.317.079.447.447,0,0,1,.105.317l.264,4.464a.361.361,0,0,0,.106.291.27.27,0,0,0,.211.132l-.026.159h-.951a.456.456,0,0,1-.343-.132.7.7,0,0,1-.132-.4l-.053-1.03H956.14l-.555,1.057c0,.026-.026.052-.026.079a.1.1,0,0,1-.026.079.2.2,0,0,0,.053.132.223.223,0,0,0,.158.053l-.027.159h-1.056a.222.222,0,0,1-.158-.053.2.2,0,0,1-.053-.132.335.335,0,0,1,.026-.158c.026-.053.053-.132.105-.238l2.43-4.331a.558.558,0,0,1,.079-.132.16.16,0,0,0,.026-.106.2.2,0,0,0-.053-.132.222.222,0,0,0-.158-.053Zm.739,1.109-1.162,2.06h1.268Z" transform="translate(-877.856 -1191.141)"/></g></svg>